<svg xmlns="http://www.w3.org/2000/svg" width="1600" height="900" viewBox="0 0 1600 900">
  <defs><linearGradient id="bg3" x1="0" y1="0" x2="1" y2="1"><stop stop-color="#081c18"/><stop offset=".55" stop-color="#102b23"/><stop offset="1" stop-color="#173b2d"/></linearGradient><linearGradient id="hero3" x1="0" y1="0" x2="1" y2="0"><stop stop-color="#153f30"/><stop offset="1" stop-color="#0c2a21"/></linearGradient><filter id="sh3"><feDropShadow dx="0" dy="8" stdDeviation="12" flood-color="#000" flood-opacity=".2"/></filter></defs>
  <rect width="1600" height="900" fill="url(#bg3)"/>
  <g font-family="Microsoft YaHei, PingFang SC, sans-serif">
    <rect x="24" y="25" width="1552" height="82" rx="18" fill="#f4fbf6" filter="url(#sh3)"/><image href="../public/logo-lockup.png" x="48" y="42" width="215" height="49" preserveAspectRatio="xMinYMid meet"/><line x1="286" y1="44" x2="286" y2="88" stroke="#d5e5da"/><text x="310" y="64" fill="#176041" font-size="12" letter-spacing="2">FULL DATA COMMAND CENTER</text><text x="310" y="90" fill="#173f2c" font-size="24" font-weight="700">智慧农业数据大屏</text><text x="1188" y="58" fill="#71867a" font-size="13">2026-07-14  周二</text><text x="1188" y="87" fill="#153f2d" font-size="23" font-weight="700">14:58:36</text><rect x="1426" y="44" width="121" height="44" rx="11" fill="#0d5c3c"/><text x="1455" y="72" fill="white" font-size="15">退出大屏</text>

    <rect x="24" y="129" width="283" height="746" rx="18" fill="#f6fbf7" filter="url(#sh3)"/><text x="50" y="172" fill="#71887b" font-size="14">01 / 选择作物</text><rect x="47" y="191" width="237" height="54" rx="13" fill="#0c6542"/><text x="72" y="225" fill="white" font-size="19" font-weight="700">冰糖枣</text><text x="235" y="225" fill="#a7dbc0" font-size="13">当前</text><rect x="47" y="255" width="112" height="47" rx="12" fill="#e8f3eb"/><text x="83" y="285" fill="#315947" font-size="16">蓝莓</text><rect x="172" y="255" width="112" height="47" rx="12" fill="#e8f3eb"/><text x="208" y="285" fill="#315947" font-size="16">樱桃</text><line x1="48" y1="334" x2="284" y2="334" stroke="#dbe8df"/><text x="50" y="375" fill="#71887b" font-size="14">02 / 选择大棚</text><rect x="47" y="395" width="237" height="70" rx="13" fill="#dff3e7" stroke="#19a665"/><text x="68" y="425" fill="#164b34" font-size="17" font-weight="700">瓦房店 1 号棚</text><text x="68" y="449" fill="#1fa566" font-size="12">● 在线 · 数据正常</text><rect x="47" y="477" width="237" height="58" rx="13" fill="#edf5ef"/><text x="68" y="512" fill="#355a48" font-size="16">瓦房店 2 号棚</text><rect x="47" y="547" width="237" height="58" rx="13" fill="#edf5ef"/><text x="68" y="582" fill="#355a48" font-size="16">普兰店示范棚</text><rect x="47" y="650" width="237" height="123" rx="15" fill="#103f2e"/><text x="68" y="682" fill="#8fc4aa" font-size="13">当前选择</text><text x="68" y="713" fill="white" font-size="18" font-weight="700">冰糖枣</text><text x="68" y="740" fill="#c5e2d3" font-size="14">瓦房店 1 号棚</text><text x="68" y="762" fill="#4dd392" font-size="12">综合适宜度 92.4 分</text><rect x="47" y="800" width="237" height="48" rx="12" fill="#e7f1ea"/><text x="102" y="830" fill="#356049" font-size="15">← 返回数据分析</text>

    <rect x="330" y="129" width="1246" height="176" rx="18" fill="url(#hero3)" stroke="#285f49"/><text x="360" y="169" fill="#6edfa8" font-size="13" letter-spacing="2">LIVE ENVIRONMENT STATUS</text><text x="360" y="202" fill="white" font-size="24" font-weight="700">冰糖枣 · 瓦房店 1 号棚</text><text x="360" y="230" fill="#99b9aa" font-size="14">18 台设备在线，数据每 30 秒刷新</text><circle cx="530" cy="259" r="6" fill="#45d696"/><text x="547" y="264" fill="#bce0cf" font-size="14">全部系统运行正常</text>
    <g><rect x="770" y="150" width="184" height="124" rx="14" fill="#173f31"/><text x="792" y="178" fill="#88ad9b" font-size="13">空气温湿度</text><text x="792" y="218" fill="white" font-size="27" font-weight="700">26.8°C</text><text x="792" y="249" fill="#58d59a" font-size="17">68%</text><rect x="966" y="150" width="184" height="124" rx="14" fill="#173f31"/><text x="988" y="178" fill="#88ad9b" font-size="13">土壤温湿度</text><text x="988" y="218" fill="white" font-size="27" font-weight="700">24.6°C</text><text x="988" y="249" fill="#58d59a" font-size="17">57%</text><rect x="1162" y="150" width="184" height="124" rx="14" fill="#173f31"/><text x="1184" y="178" fill="#88ad9b" font-size="13">光照 / CO₂</text><text x="1184" y="218" fill="white" font-size="25" font-weight="700">18.2 klx</text><text x="1184" y="249" fill="#58d59a" font-size="17">612 ppm</text><rect x="1358" y="150" width="190" height="124" rx="14" fill="#173f31"/><text x="1380" y="178" fill="#88ad9b" font-size="13">EC / PH</text><text x="1380" y="218" fill="white" font-size="25" font-weight="700">1.82</text><text x="1380" y="249" fill="#58d59a" font-size="17">PH 6.5</text></g>

    <rect x="330" y="327" width="774" height="355" rx="18" fill="#f6fbf7" filter="url(#sh3)"/><text x="358" y="368" fill="#163e2d" font-size="19" font-weight="700">环境趋势与阈值</text><rect x="917" y="347" width="75" height="31" rx="8" fill="#e4f2e8"/><text x="939" y="368" fill="#2c684b" font-size="12">24 小时</text><rect x="1001" y="347" width="75" height="31" rx="8" fill="#f0f5f1"/><text x="1022" y="368" fill="#71877a" font-size="12">7 天</text>
    <g stroke="#dde9e1"><line x1="370" y1="418" x2="1065" y2="418"/><line x1="370" y1="485" x2="1065" y2="485"/><line x1="370" y1="552" x2="1065" y2="552"/><line x1="370" y1="619" x2="1065" y2="619"/></g><path d="M370 579 C430 555 470 568 525 520 S630 535 690 475 S800 505 855 430 S965 445 1065 403" fill="none" stroke="#159b5d" stroke-width="4"/><path d="M370 460 C430 476 480 450 540 485 S650 460 715 508 S830 480 890 530 S1000 495 1065 517" fill="none" stroke="#3a8ed5" stroke-width="3"/><line x1="370" y1="450" x2="1065" y2="450" stroke="#e0a12b" stroke-width="2" stroke-dasharray="7 7"/><text x="965" y="440" fill="#bd8520" font-size="11">预警阈值</text><g fill="#84958c" font-size="12"><text x="367" y="653">00:00</text><text x="505" y="653">04:00</text><text x="642" y="653">08:00</text><text x="780" y="653">12:00</text><text x="917" y="653">16:00</text><text x="1030" y="653">20:00</text></g>

    <rect x="1127" y="327" width="449" height="355" rx="18" fill="#f6fbf7" filter="url(#sh3)"/><text x="1155" y="368" fill="#163e2d" font-size="19" font-weight="700">三棚综合对比</text><g fill="#678074" font-size="13"><text x="1155" y="414">瓦房店 1 号棚</text><text x="1155" y="486">瓦房店 2 号棚</text><text x="1155" y="558">普兰店示范棚</text></g><g><rect x="1155" y="431" width="365" height="18" rx="9" fill="#e1ece5"/><rect x="1155" y="431" width="337" height="18" rx="9" fill="#17a565"/><rect x="1155" y="503" width="365" height="18" rx="9" fill="#e1ece5"/><rect x="1155" y="503" width="288" height="18" rx="9" fill="#4897d5"/><rect x="1155" y="575" width="365" height="18" rx="9" fill="#e1ece5"/><rect x="1155" y="575" width="315" height="18" rx="9" fill="#d5a735"/></g><g fill="#2d5743" font-size="13" font-weight="700"><text x="1478" y="414">92.4</text><text x="1478" y="486">78.9</text><text x="1478" y="558">86.3</text></g><rect x="1155" y="620" width="365" height="37" rx="10" fill="#e5f4ea"/><text x="1193" y="644" fill="#25704e" font-size="13">1 号棚综合环境最适宜，保持当前策略</text>

    <rect x="330" y="704" width="390" height="171" rx="18" fill="#f6fbf7" filter="url(#sh3)"/><text x="358" y="742" fill="#163e2d" font-size="18" font-weight="700">数据质量</text><circle cx="412" cy="807" r="42" fill="none" stroke="#e1ebe5" stroke-width="12"/><path d="M412 765 A42 42 0 1 1 379 833" fill="none" stroke="#18a565" stroke-width="12" stroke-linecap="round"/><text x="390" y="814" fill="#173f2d" font-size="20" font-weight="700">96%</text><text x="483" y="784" fill="#607b6d" font-size="13">设备在线  18 / 18</text><text x="483" y="814" fill="#607b6d" font-size="13">完整率  99.2%</text><text x="483" y="844" fill="#607b6d" font-size="13">刷新于  14:58</text>
    <rect x="743" y="704" width="454" height="171" rx="18" fill="#f6fbf7" filter="url(#sh3)"/><text x="771" y="742" fill="#163e2d" font-size="18" font-weight="700">最新采集</text><g fill="#789085" font-size="12"><text x="771" y="771">14:58:32</text><text x="861" y="771">土壤墒情传感器</text><text x="1127" y="771" fill="#20a568">正常</text><text x="771" y="810">14:58:17</text><text x="861" y="810">棚内气象站</text><text x="1127" y="810" fill="#20a568">正常</text><text x="771" y="849">14:57:51</text><text x="861" y="849">水肥一体机</text><text x="1127" y="849" fill="#c28c21">待执行</text></g>
    <rect x="1220" y="704" width="356" height="171" rx="18" fill="#fff8e8" filter="url(#sh3)"/><text x="1248" y="742" fill="#5a451a" font-size="18" font-weight="700">实时预警</text><circle cx="1254" cy="783" r="6" fill="#d69d28"/><text x="1271" y="787" fill="#634d1e" font-size="14">2 号棚光照略低</text><text x="1271" y="811" fill="#92763f" font-size="12">建议检查补光设备</text><line x1="1248" y1="831" x2="1548" y2="831" stroke="#eddcae"/><circle cx="1254" cy="850" r="6" fill="#28aa69"/><text x="1271" y="854" fill="#486d58" font-size="13">其余指标运行正常</text>
  </g>
</svg>
