<svg xmlns="http://www.w3.org/2000/svg" width="1600" height="900" viewBox="0 0 1600 900">
  <defs><linearGradient id="g" x1="0" y1="0" x2="1" y2="1"><stop stop-color="#f6fbf7"/><stop offset="1" stop-color="#e8f5ec"/></linearGradient><filter id="s"><feDropShadow dx="0" dy="7" stdDeviation="12" flood-color="#154d34" flood-opacity=".09"/></filter></defs>
  <rect width="1600" height="900" fill="url(#g)"/>
  <g font-family="Microsoft YaHei, PingFang SC, sans-serif">
    <rect x="24" y="22" width="250" height="856" rx="22" fill="#0b5034" filter="url(#s)"/>
    <image href="../public/logo-lockup.png" x="45" y="46" width="190" height="52" preserveAspectRatio="xMinYMid meet"/>
    <text x="47" y="143" fill="#a8d6bd" font-size="14">作物</text>
    <rect x="42" y="160" width="214" height="51" rx="13" fill="#f0d470"/><text x="67" y="193" fill="#174b35" font-size="18" font-weight="700">冰糖枣</text>
    <rect x="42" y="221" width="102" height="45" rx="12" fill="#176a49"/><text x="70" y="250" fill="#dceee5" font-size="16">蓝莓</text><rect x="154" y="221" width="102" height="45" rx="12" fill="#176a49"/><text x="182" y="250" fill="#dceee5" font-size="16">樱桃</text>
    <text x="47" y="316" fill="#a8d6bd" font-size="14">大棚</text>
    <rect x="42" y="333" width="214" height="67" rx="13" fill="#fff"/><text x="62" y="361" fill="#164f36" font-size="17" font-weight="700">瓦房店 1 号棚</text><text x="62" y="383" fill="#26a56c" font-size="12">● 在线 · 当前选择</text>
    <rect x="42" y="410" width="214" height="55" rx="13" fill="#176a49"/><text x="62" y="444" fill="#e0eee6" font-size="16">瓦房店 2 号棚</text>
    <rect x="42" y="475" width="214" height="55" rx="13" fill="#176a49"/><text x="62" y="509" fill="#e0eee6" font-size="16">普兰店示范棚</text>
    <text x="48" y="717" fill="#a8d6bd" font-size="13">当前环境适宜度</text><text x="48" y="761" fill="white" font-size="36" font-weight="700">92.4<tspan font-size="16"> 分</tspan></text><rect x="44" y="782" width="210" height="8" rx="4" fill="#1a6b4a"/><rect x="44" y="782" width="191" height="8" rx="4" fill="#f0d470"/>
    <rect x="42" y="817" width="214" height="42" rx="11" fill="#074329" stroke="#3b8665"/><text x="89" y="844" fill="#d4eadf" font-size="15">← 返回数据分析</text>

    <text x="310" y="57" fill="#0d6b46" font-size="13" letter-spacing="3">DATA OVERVIEW</text><text x="310" y="93" fill="#173d2c" font-size="30" font-weight="700">智慧农业数据大屏</text><text x="310" y="119" fill="#6a8678" font-size="14">冰糖枣 · 瓦房店 1 号棚 · 全量数据总览</text>
    <rect x="1310" y="43" width="122" height="43" rx="11" fill="#fff"/><text x="1331" y="70" fill="#456756" font-size="14">14:58:36</text><rect x="1445" y="43" width="121" height="43" rx="11" fill="#0b5d3d"/><text x="1474" y="70" fill="white" font-size="15">退出大屏</text>

    <rect x="310" y="147" width="1256" height="124" rx="18" fill="white" filter="url(#s)"/>
    <g fill="#758b80" font-size="13"><text x="338" y="178">空气温度</text><text x="493" y="178">空气湿度</text><text x="648" y="178">光照</text><text x="803" y="178">CO₂</text><text x="958" y="178">土壤湿度</text><text x="1113" y="178">土壤温度</text><text x="1268" y="178">EC</text><text x="1423" y="178">PH</text></g>
    <g fill="#173d2c" font-size="26" font-weight="700"><text x="338" y="220">26.8<tspan font-size="14"> °C</tspan></text><text x="493" y="220">68<tspan font-size="14"> %</tspan></text><text x="648" y="220">18.2<tspan font-size="14"> klx</tspan></text><text x="803" y="220">612<tspan font-size="14"> ppm</tspan></text><text x="958" y="220">57<tspan font-size="14"> %</tspan></text><text x="1113" y="220">24.6<tspan font-size="14"> °C</tspan></text><text x="1268" y="220">1.82</text><text x="1423" y="220">6.5</text></g>
    <g fill="#23a76b" font-size="12"><text x="338" y="246">适宜</text><text x="493" y="246">正常</text><text x="648" y="246">充足</text><text x="803" y="246">适宜</text><text x="958" y="246">正常</text><text x="1113" y="246">适宜</text><text x="1268" y="246">适中</text><text x="1423" y="246">正常</text></g>

    <rect x="310" y="291" width="810" height="350" rx="18" fill="white" filter="url(#s)"/><text x="338" y="331" fill="#193e2d" font-size="19" font-weight="700">24 小时环境趋势</text><text x="909" y="330" fill="#25a86c" font-size="13">● 温度</text><text x="978" y="330" fill="#3f91de" font-size="13">● 湿度</text><text x="1045" y="330" fill="#d69f27" font-size="13">● CO₂</text>
    <g stroke="#e5eee8"><line x1="350" y1="375" x2="1085" y2="375"/><line x1="350" y1="445" x2="1085" y2="445"/><line x1="350" y1="515" x2="1085" y2="515"/><line x1="350" y1="585" x2="1085" y2="585"/></g><path d="M350 548 C420 520 450 535 510 480 S620 470 675 425 S780 455 840 390 S950 405 1085 350" fill="none" stroke="#21a96b" stroke-width="4"/><path d="M350 405 C430 415 470 390 530 430 S650 405 715 450 S840 420 905 465 S1000 430 1085 455" fill="none" stroke="#3b8fd8" stroke-width="3"/><path d="M350 510 C430 490 475 500 540 475 S665 490 725 455 S850 470 915 430 S1020 455 1085 415" fill="none" stroke="#d6a22c" stroke-width="3"/>
    <g fill="#83958c" font-size="12"><text x="344" y="614">00:00</text><text x="495" y="614">04:00</text><text x="646" y="614">08:00</text><text x="797" y="614">12:00</text><text x="948" y="614">16:00</text><text x="1047" y="614">20:00</text></g>

    <rect x="1140" y="291" width="426" height="168" rx="18" fill="white" filter="url(#s)"/><text x="1167" y="331" fill="#193e2d" font-size="18" font-weight="700">数据质量</text><circle cx="1228" cy="393" r="43" fill="none" stroke="#e7f0ea" stroke-width="12"/><path d="M1228 350 A43 43 0 1 1 1195 420" fill="none" stroke="#25aa6d" stroke-width="12" stroke-linecap="round"/><text x="1205" y="400" fill="#17432f" font-size="20" font-weight="700">96%</text><text x="1305" y="370" fill="#6b8678" font-size="13">在线设备  18 / 18</text><text x="1305" y="400" fill="#6b8678" font-size="13">数据完整  99.2%</text><text x="1305" y="430" fill="#6b8678" font-size="13">最后采集  14:58</text>
    <rect x="1140" y="473" width="426" height="168" rx="18" fill="#fffaf0" filter="url(#s)"/><text x="1167" y="513" fill="#5f491b" font-size="18" font-weight="700">实时预警</text><rect x="1167" y="533" width="372" height="78" rx="12" fill="#fff3cf"/><circle cx="1194" cy="558" r="6" fill="#dfa728"/><text x="1211" y="562" fill="#6c541f" font-size="14" font-weight="700">2 号棚光照略低</text><text x="1211" y="589" fill="#947a3f" font-size="13">建议检查补光设备 · 14:51</text>

    <rect x="310" y="661" width="610" height="205" rx="18" fill="white" filter="url(#s)"/><text x="338" y="701" fill="#193e2d" font-size="18" font-weight="700">棚区指标对比</text><g fill="#70887b" font-size="13"><text x="338" y="744">瓦房店 1 号棚</text><text x="338" y="791">瓦房店 2 号棚</text><text x="338" y="838">普兰店示范棚</text></g><g><rect x="490" y="730" width="380" height="14" rx="7" fill="#e6f0e9"/><rect x="490" y="730" width="350" height="14" rx="7" fill="#20aa6a"/><rect x="490" y="777" width="380" height="14" rx="7" fill="#e6f0e9"/><rect x="490" y="777" width="292" height="14" rx="7" fill="#58a4df"/><rect x="490" y="824" width="380" height="14" rx="7" fill="#e6f0e9"/><rect x="490" y="824" width="324" height="14" rx="7" fill="#dfb548"/></g>
    <rect x="940" y="661" width="626" height="205" rx="18" fill="white" filter="url(#s)"/><text x="968" y="701" fill="#193e2d" font-size="18" font-weight="700">最新采集</text><g fill="#81938a" font-size="12"><text x="968" y="733">时间</text><text x="1080" y="733">设备</text><text x="1378" y="733">状态</text></g><g fill="#334f40" font-size="14"><text x="968" y="769">14:58:32</text><text x="1080" y="769">土壤墒情传感器</text><text x="1378" y="769" fill="#22a76a">正常</text><text x="968" y="810">14:58:17</text><text x="1080" y="810">棚内气象站</text><text x="1378" y="810" fill="#22a76a">正常</text><text x="968" y="851">14:57:51</text><text x="1080" y="851">水肥一体机</text><text x="1378" y="851" fill="#c89422">待执行</text></g>
  </g>
</svg>
